<svg xmlns="http://www.w3.org/2000/svg" viewBox="0 0 1000 2400" width="100%" height="100%">
  <defs>
    <style>
      @import url('https://fonts.googleapis.com/css2?family=Share+Tech+Mono&amp;display=swap');
      @import url('https://fonts.googleapis.com/css2?family=Orbitron:wght@500;700;900&amp;display=swap');
      @import url('https://fonts.googleapis.com/css2?family=JetBrains+Mono:wght@400;700&amp;display=swap');

      .bg{fill:#0D1117}
      .t-hero{font-family:'Orbitron',sans-serif;font-size:36px;font-weight:900;fill:#FFF}
      .t-title{font-family:'Orbitron',sans-serif;font-size:22px;font-weight:700;fill:#FFF}
      .t-sub{font-family:'Share Tech Mono',monospace;font-size:14px;fill:#8B5CF6}
      .t-data{font-family:'Share Tech Mono',monospace;font-size:14px;fill:#FFF}
      .t-code{font-family:'JetBrains Mono',monospace;font-size:12px;fill:#3B82F6}
      .t-tiny{font-family:'Share Tech Mono',monospace;font-size:11px}
      .cyan{fill:#00E5FF}.pur{fill:#A855F7}.blu{fill:#3B82F6}

      .gc{filter:url(#glow-c)}.gp{filter:url(#glow-p)}.gb{filter:url(#glow-b)}.bloom{filter:url(#bloom)}

      .rot-cw{animation:sp 45s linear infinite;transform-origin:300px 420px}
      .rot-ccw{animation:spr 32s linear infinite;transform-origin:300px 420px}
      .rot-f{animation:sp 12s linear infinite;transform-origin:300px 420px}
      @keyframes sp{to{transform:rotate(360deg)}}
      @keyframes spr{to{transform:rotate(-360deg)}}

      .pulse{animation:pu 3s infinite alternate}
      @keyframes pu{0%{opacity:.4}100%{opacity:1;filter:brightness(1.4)}}
      .pulse-f{animation:pf .6s infinite alternate}
      @keyframes pf{0%{opacity:.3}100%{opacity:1}}
      .breathe{animation:br 5s ease-in-out infinite alternate}
      @keyframes br{0%{transform:scale(.98);opacity:.85}100%{transform:scale(1.02);opacity:1}}
      .scan{animation:sc 7s linear infinite}
      @keyframes sc{0%{transform:translateY(-250px);opacity:0}8%{opacity:1}92%{opacity:1}100%{transform:translateY(850px);opacity:0}}
      .blink{animation:bl 1s step-end infinite}@keyframes bl{50%{opacity:0}}
      .glitch{animation:gl 6s infinite}
      @keyframes gl{0%,93%,97%,100%{transform:translate(0,0)}94%{transform:translate(-4px,3px);filter:drop-shadow(5px 0 0 rgba(255,0,80,.9))}95%{transform:translate(4px,-3px);filter:drop-shadow(-5px 0 0 rgba(0,229,255,.9))}96%{transform:translate(-3px,-4px);filter:drop-shadow(0 5px 0 rgba(168,85,247,.9))}}
      .particle{animation:fp 4s ease-in-out infinite alternate}
      @keyframes fp{0%{transform:translateY(0) translateX(0)}100%{transform:translateY(-35px) translateX(18px)}}
      .stream{stroke-dasharray:20 10;animation:st 5s linear infinite}@keyframes st{to{stroke-dashoffset:-100}}
      .pkt{stroke-dasharray:6 200;stroke-width:4;stroke-linecap:round;animation:pk 4s linear infinite}@keyframes pk{to{stroke-dashoffset:-410}}
      .card{fill:rgba(13,17,23,.75);stroke:#3B82F6;stroke-width:1.5;transition:all .3s ease}
      .card-hover:hover .card{stroke:#00E5FF;stroke-width:2.5;filter:url(#glow-c)}
      .card-hover:hover .hv{opacity:1}
      .hv{opacity:0;transition:opacity .3s ease}
      .scroll-up{animation:scrl 12s linear infinite}
      @keyframes scrl{0%{transform:translateY(25px);opacity:0}8%{opacity:1}92%{opacity:1}100%{transform:translateY(-50px);opacity:0}}

      .boot-overlay{animation:bootOut .8s 4.5s forwards}
      @keyframes bootOut{to{opacity:0;visibility:hidden}}
      .b1{opacity:0;animation:show 0s .3s forwards}
      .b2{opacity:0;animation:show 0s 1.2s forwards}
      .b3{opacity:0;animation:show 0s 2.2s forwards}
      .b4{opacity:0;animation:show 0s 3.2s forwards}
      .b5{opacity:0;animation:show 0s 3.8s forwards}
      @keyframes show{to{opacity:1}}
      .bar1{width:0;animation:barG .9s .3s forwards}
      .bar2{width:0;animation:barG 1s 1.2s forwards}
      .bar3{width:0;animation:barG .8s 2.2s forwards}
      .bar4{width:0;animation:barG .6s 3.2s forwards}
      @keyframes barG{to{width:350px}}

      /* Star Twinkle */
      .star{animation:tw 3s ease-in-out infinite alternate}
      @keyframes tw{0%{opacity:.2;r:1}100%{opacity:.8;r:1.5}}
    </style>

    <filter id="glow-c" x="-20%" y="-20%" width="140%" height="140%"><feGaussianBlur stdDeviation="6" result="b"/><feMerge><feMergeNode in="b"/><feMergeNode in="SourceGraphic"/></feMerge></filter>
    <filter id="glow-p" x="-20%" y="-20%" width="140%" height="140%"><feGaussianBlur stdDeviation="10" result="b"/><feMerge><feMergeNode in="b"/><feMergeNode in="SourceGraphic"/></feMerge></filter>
    <filter id="glow-b" x="-20%" y="-20%" width="140%" height="140%"><feGaussianBlur stdDeviation="5" result="b"/><feMerge><feMergeNode in="b"/><feMergeNode in="SourceGraphic"/></feMerge></filter>
    <filter id="bloom" x="-50%" y="-50%" width="200%" height="200%"><feGaussianBlur stdDeviation="50" result="b"/><feMerge><feMergeNode in="b"/><feMergeNode in="SourceGraphic"/></feMerge></filter>
    <filter id="noise"><feTurbulence type="fractalNoise" baseFrequency=".9" numOctaves="3" stitchTiles="stitch"/><feColorMatrix type="matrix" values="1 0 0 0 0,0 1 0 0 0,0 0 1 0 0,0 0 0 .06 0"/></filter>

    <pattern id="hex" width="56" height="96.9" patternUnits="userSpaceOnUse" patternTransform="scale(.55)">
      <path d="M28 0 L56 16.17 L56 48.5 L28 64.67 L0 48.5 L0 16.17Z" fill="none" stroke="rgba(0,229,255,.07)" stroke-width="1.5"/>
      <path d="M28 96.9 L56 80.73 L56 48.5" fill="none" stroke="rgba(0,229,255,.07)" stroke-width="1.5"/>
      <path d="M0 48.5 L0 80.73 L28 96.9" fill="none" stroke="rgba(0,229,255,.07)" stroke-width="1.5"/>
    </pattern>

    <linearGradient id="ag" x1="0%" y1="0%" x2="100%" y2="100%"><stop offset="0%" stop-color="#3B82F6"/><stop offset="50%" stop-color="#00E5FF"/><stop offset="100%" stop-color="#A855F7"/></linearGradient>
    <linearGradient id="glass" x1="0%" y1="0%" x2="0%" y2="100%"><stop offset="0%" stop-color="rgba(255,255,255,.06)"/><stop offset="100%" stop-color="rgba(255,255,255,0)"/></linearGradient>
    <linearGradient id="fog1" x1="0%" y1="0%" x2="0%" y2="100%"><stop offset="0%" stop-color="rgba(139,92,246,.18)"/><stop offset="40%" stop-color="rgba(0,229,255,.06)"/><stop offset="100%" stop-color="rgba(13,17,23,0)"/></linearGradient>
    <linearGradient id="fog2" x1="0%" y1="100%" x2="0%" y2="0%"><stop offset="0%" stop-color="rgba(59,130,246,.1)"/><stop offset="100%" stop-color="rgba(13,17,23,0)"/></linearGradient>
  </defs>

  <!-- ══════════ DEEP BACKGROUND ══════════ -->
  <rect width="1000" height="2400" class="bg"/>
  <rect width="1000" height="2400" fill="url(#hex)" opacity=".5"/>
  <rect width="1000" height="1400" fill="url(#fog1)"/>
  <rect y="1600" width="1000" height="800" fill="url(#fog2)"/>
  <rect width="1000" height="2400" fill="url(#noise)" style="mix-blend-mode:overlay"/>

  <!-- Subtle Star Field -->
  <g opacity=".5">
    <circle cx="50" cy="120" r="1" fill="#FFF" class="star"/>
    <circle cx="200" cy="80" r="1.2" fill="#FFF" class="star" style="animation-delay:-1s"/>
    <circle cx="780" cy="150" r="1" fill="#FFF" class="star" style="animation-delay:-2s"/>
    <circle cx="900" cy="90" r="1.3" fill="#FFF" class="star" style="animation-delay:-.5s"/>
    <circle cx="650" cy="60" r="1" fill="#FFF" class="star" style="animation-delay:-1.5s"/>
    <circle cx="420" cy="170" r="1.1" fill="#FFF" class="star" style="animation-delay:-2.5s"/>
    <circle cx="130" cy="900" r="1" fill="#FFF" class="star" style="animation-delay:-1s"/>
    <circle cx="870" cy="1100" r="1.2" fill="#FFF" class="star" style="animation-delay:-2s"/>
    <circle cx="60" cy="1400" r="1" fill="#FFF" class="star" style="animation-delay:-.7s"/>
    <circle cx="940" cy="1700" r="1.1" fill="#FFF" class="star" style="animation-delay:-1.8s"/>
    <circle cx="350" cy="2000" r="1" fill="#FFF" class="star" style="animation-delay:-2.2s"/>
  </g>

  <!-- ══════════ MOTHERBOARD TRUNK ══════════ -->
  <g opacity=".6">
    <path d="M500 0L500 2400" fill="none" stroke="#3B82F6" stroke-width="2" class="stream"/>
    <path d="M500 0L500 2400" fill="none" stroke="#00E5FF" class="pkt"/>
    <path d="M300 850L300 2400" fill="none" stroke="#8B5CF6" stroke-width="1.5"/>
    <path d="M700 850L700 2400" fill="none" stroke="#00E5FF" stroke-width="1.5"/>
    <path d="M300 850L300 2400" fill="none" stroke="#A855F7" class="pkt" style="animation-delay:-1.5s"/>
    <path d="M700 850L700 2400" fill="none" stroke="#00E5FF" class="pkt" style="animation-delay:-3s"/>
    <path d="M500 920L700 1020 M500 1350L300 1450 M500 1750L700 1850 M500 2150L300 2250" fill="none" stroke="#3B82F6" stroke-width="2" class="stream"/>
  </g>

  <!-- ══════════ SYSTEM HEADER BAR ══════════ -->
  <rect y="0" width="1000" height="42" fill="rgba(139,92,246,.15)"/>
  <rect y="0" width="1000" height="42" fill="url(#glass)"/>
  <line x1="0" y1="42" x2="1000" y2="42" stroke="#8B5CF6" stroke-width="2" class="gp"/>
  <text x="30" y="27" class="t-tiny cyan gc blink">SYS.BOOT_0x4149 | KERNEL_v3.2.1</text>
  <text x="750" y="27" class="t-tiny pur">ENCRYPTED [AES-256] | UPTIME: 99.98%</text>
  <circle cx="960" cy="21" r="5" fill="#00FF00" class="pulse-f" filter="drop-shadow(0 0 4px #00FF00)"/>
  <circle cx="978" cy="21" r="5" fill="#00E5FF" class="pulse gc"/>

  <!-- ══════════ AI CORE REACTOR (AVATAR) ══════════ -->
  <g id="avatar-core">
    <!-- Deep Volumetric Bloom -->
    <circle cx="300" cy="420" r="200" fill="url(#ag)" opacity=".25" class="bloom pulse"/>
    <circle cx="300" cy="420" r="130" fill="#00E5FF" opacity=".08" class="bloom breathe"/>

    <!-- Neural Network Lines -->
    <g stroke="#A855F7" stroke-width="1.5" opacity=".35">
      <path d="M300 420L80 180 M300 420L520 180 M300 420L80 660 M300 420L520 660 M300 420L50 420 M300 420L550 420" class="stream"/>
      <circle cx="80" cy="180" r="4" fill="#A855F7" class="pulse gp"/><circle cx="520" cy="180" r="4" fill="#00E5FF" class="pulse gc"/>
      <circle cx="80" cy="660" r="4" fill="#A855F7" class="pulse gp"/><circle cx="520" cy="660" r="4" fill="#00E5FF" class="pulse gc"/>
      <circle cx="50" cy="420" r="4" fill="#3B82F6" class="pulse gb"/><circle cx="550" cy="420" r="4" fill="#3B82F6" class="pulse gb"/>
    </g>

    <!-- Rotating Rings -->
    <circle cx="300" cy="420" r="260" fill="none" stroke="#3B82F6" stroke-width="1" opacity=".4" stroke-dasharray="15 25" class="rot-cw"/>
    <circle cx="300" cy="420" r="235" fill="none" stroke="#00E5FF" stroke-width="3" stroke-dasharray="130 35 15 35 8 45" class="rot-ccw gc"/>
    <circle cx="300" cy="420" r="210" fill="none" stroke="#A855F7" stroke-width="4" stroke-dasharray="8 22" class="rot-cw gp"/>
    <circle cx="300" cy="420" r="190" fill="none" stroke="#3B82F6" stroke-width="2" stroke-dasharray="280 60 35 60" class="rot-ccw gb"/>

    <!-- Hexagonal Energy Shield -->
    <polygon points="300,185 500,310 500,530 300,655 100,530 100,310" fill="none" stroke="#00E5FF" stroke-width="2" opacity=".4" class="breathe gc"/>
    <polygon points="300,200 485,315 485,525 300,640 115,525 115,315" fill="none" stroke="#A855F7" stroke-width="1" opacity=".25" stroke-dasharray="10 10" class="rot-cw"/>

    <!-- AI Target Lock -->
    <g class="rot-f">
      <path d="M300 150L300 185 M300 655L300 690 M20 420L55 420 M545 420L580 420" stroke="#00E5FF" stroke-width="4" class="gc"/>
      <circle cx="300" cy="150" r="6" fill="#FFF" class="gc"/><circle cx="300" cy="690" r="6" fill="#FFF" class="gc"/>
      <circle cx="20" cy="420" r="6" fill="#FFF" class="gc"/><circle cx="580" cy="420" r="6" fill="#FFF" class="gc"/>
    </g>

    <!-- Vector AI Avatar -->
    <g transform="translate(300,420) scale(2.5)" class="glitch breathe">
      <!-- Chromatic Aberration Shadows -->
      <path d="M-42-68L42-68 62-32 62 42 32 78-32 78-62 42-62-32Z" fill="none" stroke="rgba(255,0,80,.5)" stroke-width="4" transform="translate(-3,3)"/>
      <path d="M-42-68L42-68 62-32 62 42 32 78-32 78-62 42-62-32Z" fill="none" stroke="rgba(0,229,255,.5)" stroke-width="4" transform="translate(3,-3)"/>
      <!-- Main Head -->
      <path d="M-42-68L42-68 62-32 62 42 32 78-32 78-62 42-62-32Z" fill="rgba(13,17,23,.95)" stroke="url(#ag)" stroke-width="3"/>
      <path d="M-42-68L42-68 62-32 62 42 32 78-32 78-62 42-62-32Z" fill="url(#glass)"/>
      <path d="M-42-68L42-68 62-32 62 42 32 78-32 78-62 42-62-32Z" fill="none" stroke="#8B5CF6" stroke-width="5" opacity=".5" filter="url(#glow-p)"/>
      <!-- Visor -->
      <path d="M-52-16L52-16 47 22-47 22Z" fill="rgba(0,0,0,.85)"/>
      <path d="M-52-16L52-16 47 22-47 22Z" fill="url(#glass)"/>
      <rect x="-47" y="-10" width="94" height="3" fill="#00E5FF" class="gc pulse"/>
      <rect x="-42" y="6" width="84" height="2" fill="#A855F7" opacity=".7"/>
      <!-- Core Eye -->
      <circle cy="3" r="9" fill="#FFF" class="gc pulse"/>
      <circle cy="3" r="18" fill="none" stroke="#00E5FF" stroke-width="1.5" class="rot-f" stroke-dasharray="7 5"/>
      <circle cy="3" r="26" fill="none" stroke="#A855F7" stroke-width="1.5" class="rot-ccw" stroke-dasharray="4 10"/>
      <!-- Neural Paths -->
      <path d="M-32-68L-32-42-16-32 M32-68L32-42 16-32 M0-68L0-38" stroke="#A855F7" stroke-width="2" fill="none"/>
      <path d="M-42 52L-16 38 M42 52L16 38 M0 78L0 52" stroke="#3B82F6" stroke-width="2" fill="none"/>
    </g>

    <!-- Giant Scanline -->
    <g transform="translate(300,420)"><rect x="-300" width="600" height="6" fill="#00E5FF" class="scan gc"/><path d="M-300 0L300 0 280 110-280 110Z" fill="rgba(0,229,255,.04)" class="scan"/></g>

    <!-- Floating Sparks & Binary -->
    <g opacity=".7">
      <circle cx="140" cy="230" r="3.5" fill="#00E5FF" class="particle gc"/>
      <circle cx="460" cy="280" r="4" fill="#A855F7" class="particle gp" style="animation-delay:-1s"/>
      <circle cx="190" cy="580" r="3" fill="#8B5CF6" class="particle gp" style="animation-delay:-2s"/>
      <circle cx="410" cy="540" r="2.5" fill="#FFF" class="particle pulse" style="animation-delay:-3s"/>
      <circle cx="100" cy="450" r="2" fill="#00E5FF" class="particle gc" style="animation-delay:-2.5s"/>
      <circle cx="500" cy="400" r="2" fill="#3B82F6" class="particle gb" style="animation-delay:-.5s"/>
      <text x="110" y="380" class="t-tiny cyan particle" style="animation-delay:-1.2s">01011010</text>
      <text x="480" y="330" class="t-tiny pur particle" style="animation-delay:-2.3s">11001101</text>
    </g>

    <!-- Floating Holographic Labels around Avatar -->
    <g opacity=".6">
      <rect x="55" y="250" width="80" height="18" fill="rgba(0,229,255,.1)" stroke="#00E5FF" stroke-width="1" rx="3"/>
      <text x="65" y="263" class="t-tiny cyan">PWR: 98%</text>
      <rect x="460" y="280" width="95" height="18" fill="rgba(168,85,247,.1)" stroke="#A855F7" stroke-width="1" rx="3"/>
      <text x="468" y="293" class="t-tiny pur">ID: VERIFIED</text>
      <rect x="55" y="560" width="110" height="18" fill="rgba(59,130,246,.1)" stroke="#3B82F6" stroke-width="1" rx="3"/>
      <text x="63" y="573" class="t-tiny blu">SEC: LVL_MAX</text>
    </g>
  </g>

  <!-- ══════════ MISSION CONSOLE ══════════ -->
  <g transform="translate(620,120)">
    <!-- Identity Block -->
    <rect width="355" height="55" fill="rgba(0,229,255,.08)" stroke="#00E5FF" stroke-width="2" rx="5" class="gc"/>
    <rect width="355" height="55" fill="url(#glass)"/>
    <text x="18" y="38" class="t-hero gc cyan" font-size="32">S-G-RATHENESH</text>
    <rect x="320" y="18" width="18" height="18" fill="#00E5FF" class="blink gc"/>

    <!-- Terminal Status -->
    <g transform="translate(0,75)">
      <text x="0" y="20" class="t-sub">IDENTITY:</text><text x="130" y="20" class="t-data cyan gc">AI_DEVELOPER [ROOT]</text>
      <text x="0" y="52" class="t-sub">SYS_STATUS:</text><text x="130" y="52" class="t-data">ONLINE &amp; RESPONSIVE</text>
      <circle cx="340" cy="47" r="5" fill="#00FF00" class="pulse-f" filter="drop-shadow(0 0 5px #00FF00)"/>
      <text x="0" y="84" class="t-sub">SECURITY:</text><text x="130" y="84" class="t-data pur gp">MAXIMUM ENCRYPTION</text>
      <text x="0" y="116" class="t-sub">MISSION:</text><text x="130" y="116" class="t-data">BUILDING SMART SYSTEMS</text>
      <!-- Signal Bars -->
      <text x="0" y="148" class="t-sub">SIGNAL:</text>
      <rect x="130" y="137" width="14" height="11" fill="#00E5FF" class="gc"/><rect x="149" y="137" width="14" height="11" fill="#00E5FF" class="gc"/>
      <rect x="168" y="137" width="14" height="11" fill="#00E5FF" class="gc"/><rect x="187" y="137" width="14" height="11" fill="#00E5FF" class="gc"/>
      <rect x="206" y="137" width="14" height="11" fill="#161B22" stroke="#00E5FF" stroke-width="1"/>
      <text x="230" y="148" class="t-data">80% [STABLE]</text>
    </g>

    <!-- CPU Waveform -->
    <g transform="translate(0,250)">
      <path d="M0 0L355 0" stroke="#3B82F6" stroke-width="1" stroke-dasharray="5 5"/>
      <text x="0" y="25" class="t-sub">CPU_ACTIVITY (AI / WEB / DB)</text>
      <path d="M0 60L18 50 36 70 54 42 72 65 90 35 108 60 126 25 144 70 162 42 180 55 198 35 216 65 234 40 252 58 270 35 288 70 306 42 324 55 342 48 355 58" fill="none" stroke="#A855F7" stroke-width="2" class="gp pulse" opacity=".8"/>
      <path d="M0 60L18 50 36 70 54 42 72 65 90 35 108 60 126 25 144 70 162 42 180 55 198 35 216 65 234 40 252 58 270 35 288 70 306 42 324 55 342 48 355 58L355 80 0 80Z" fill="rgba(168,85,247,.12)"/>
      <line x1="0" y1="80" x2="355" y2="80" stroke="#3B82F6" stroke-width="1"/>
    </g>

    <!-- Mission Control -->
    <g transform="translate(0,365)">
      <rect width="355" height="185" fill="rgba(13,17,23,.9)" stroke="#00E5FF" stroke-width="1.5" rx="8"/>
      <rect width="355" height="185" fill="url(#glass)" rx="8"/>
      <text x="15" y="22" class="t-sub" fill="#00E5FF">MISSION CONTROL</text>
      <line x1="15" y1="32" x2="340" y2="32" stroke="#00E5FF" stroke-width="1" opacity=".3"/>
      <!-- Mission 1 -->
      <circle cx="28" cy="55" r="5" fill="#00FF00" class="pulse-f" filter="drop-shadow(0 0 4px #00FF00)"/>
      <text x="42" y="52" class="t-tiny" fill="#FFF">ACTIVE</text><text x="42" y="66" class="t-data cyan gc">SpendGuard AI</text>
      <text x="280" y="60" class="t-tiny cyan">DEPLOYING</text>
      <!-- Mission 2 -->
      <circle cx="28" cy="95" r="5" fill="#FFB000" class="pulse-f" filter="drop-shadow(0 0 4px #FFB000)"/>
      <text x="42" y="92" class="t-tiny" fill="#FFF">IN DEV</text><text x="42" y="106" class="t-data pur">AI Hospital System</text>
      <text x="280" y="100" class="t-tiny pur">TRAINING</text>
      <!-- Mission 3 -->
      <circle cx="28" cy="135" r="5" fill="#3B82F6" class="pulse-f" filter="drop-shadow(0 0 4px #3B82F6)"/>
      <text x="42" y="132" class="t-tiny" fill="#FFF">RESEARCH</text><text x="42" y="146" class="t-data blu">GeoSecure AI</text>
      <text x="280" y="140" class="t-tiny blu">SYNCING</text>
      <!-- Mission 4 -->
      <circle cx="28" cy="172" r="5" fill="#A855F7" class="pulse-f" filter="drop-shadow(0 0 4px #A855F7)"/>
      <text x="42" y="169" class="t-tiny" fill="#FFF">EXPERIMENT</text><text x="42" y="183" class="t-data">VibeSync</text>
      <text x="280" y="177" class="t-tiny" fill="#A855F7">TESTING</text>
    </g>
  </g>

  <!-- ══════════ TECH MATRIX ══════════ -->
  <g transform="translate(0,850)">
    <line x1="80" y1="0" x2="920" y2="0" stroke="#3B82F6" stroke-width="1"/>
    <line x1="280" y1="0" x2="720" y2="0" stroke="#00E5FF" stroke-width="3" class="gc pulse"/>
    <text x="500" y="-12" font-family="'Orbitron',sans-serif" font-size="18" fill="#FFF" text-anchor="middle" letter-spacing="4px">HOLOGRAPHIC_TECH_MATRIX</text>
  </g>
  <g transform="translate(80,910)">
    <!-- Frontend -->
    <g><path d="M0 10L10 0 265 0 275 10 275 115 265 125 10 125 0 115Z" fill="rgba(13,17,23,.85)" stroke="#3B82F6" stroke-width="2"/><path d="M0 10L10 0 265 0 275 10 275 115 265 125 10 125 0 115Z" fill="url(#glass)"/>
      <text x="20" y="28" class="t-title" font-size="15" fill="#3B82F6">FRONTEND</text><line x1="20" y1="38" x2="255" y2="38" stroke="#3B82F6" stroke-width="1" opacity=".3"/>
      <circle cx="30" cy="62" r="4" fill="#3B82F6" class="pulse-f gb"/><text x="45" y="67" class="t-data">React &amp; React Native</text>
      <circle cx="30" cy="90" r="4" fill="#3B82F6" class="pulse-f gb" style="animation-delay:.2s"/><text x="45" y="95" class="t-data">Flutter &amp; Web</text>
      <text x="230" y="112" class="t-tiny blu">v18</text>
    </g>
    <!-- Backend -->
    <g transform="translate(285,0)"><path d="M0 10L10 0 265 0 275 10 275 115 265 125 10 125 0 115Z" fill="rgba(13,17,23,.85)" stroke="#8B5CF6" stroke-width="2" class="gp"/><path d="M0 10L10 0 265 0 275 10 275 115 265 125 10 125 0 115Z" fill="url(#glass)"/>
      <text x="20" y="28" class="t-title" font-size="15" fill="#A855F7">BACKEND</text><line x1="20" y1="38" x2="255" y2="38" stroke="#8B5CF6" stroke-width="1" opacity=".3"/>
      <circle cx="30" cy="62" r="4" fill="#A855F7" class="pulse-f gp"/><text x="45" y="67" class="t-data">Python (FastAPI)</text>
      <circle cx="30" cy="90" r="4" fill="#A855F7" class="pulse-f gp" style="animation-delay:.2s"/><text x="45" y="95" class="t-data">Node.js / Java</text>
      <text x="230" y="112" class="t-tiny pur">v3</text>
    </g>
    <!-- Infrastructure -->
    <g transform="translate(570,0)"><path d="M0 10L10 0 265 0 275 10 275 115 265 125 10 125 0 115Z" fill="rgba(13,17,23,.85)" stroke="#00E5FF" stroke-width="2" class="gc"/><path d="M0 10L10 0 265 0 275 10 275 115 265 125 10 125 0 115Z" fill="url(#glass)"/>
      <text x="20" y="28" class="t-title" font-size="15" fill="#00E5FF">INFRASTRUCTURE</text><line x1="20" y1="38" x2="255" y2="38" stroke="#00E5FF" stroke-width="1" opacity=".3"/>
      <circle cx="30" cy="62" r="4" fill="#00E5FF" class="pulse-f gc"/><text x="45" y="67" class="t-data">AWS / Firebase / Docker</text>
      <circle cx="30" cy="90" r="4" fill="#00E5FF" class="pulse-f gc" style="animation-delay:.2s"/><text x="45" y="95" class="t-data">MongoDB / SQLite</text>
      <text x="230" y="112" class="t-tiny cyan">v2</text>
    </g>
  </g>

  <!-- ══════════ EXECUTABLE PROJECTS ══════════ -->
  <g transform="translate(0,1150)">
    <line x1="80" y1="0" x2="920" y2="0" stroke="#3B82F6" stroke-width="1"/>
    <line x1="280" y1="0" x2="720" y2="0" stroke="#8B5CF6" stroke-width="3" class="gp pulse"/>
    <text x="500" y="-12" font-family="'Orbitron',sans-serif" font-size="18" fill="#FFF" text-anchor="middle" letter-spacing="4px">ACTIVE_PROGRAMS_V1</text>
  </g>

  <!-- Project 1 -->
  <g transform="translate(50,1210)" class="card-hover">
    <path d="M10 0L430 0 440 10 440 260 430 270 10 270 0 260 0 10Z" class="card"/><rect width="440" height="270" fill="url(#glass)" rx="5"/>
    <rect width="440" height="270" fill="rgba(0,229,255,.04)" class="hv"/>
    <path d="M0 10L10 0 430 0" fill="none" stroke="#00E5FF" stroke-width="3" class="hv gc pulse"/>
    <circle cx="20" cy="22" r="4" fill="#00FF00" class="pulse-f" filter="drop-shadow(0 0 4px #00FF00)"/>
    <text x="34" y="27" class="t-code">PID:4092</text><text x="150" y="27" class="t-code" fill="#8B5CF6">v2.4.1</text><text x="350" y="27" class="t-code cyan">RAM:142MB</text>
    <text x="20" y="58" class="t-title">SpendGuard AI</text>
    <line x1="20" y1="72" x2="420" y2="72" stroke="#3B82F6" stroke-width="1" opacity=".3"/>
    <text x="20" y="95" class="t-data cyan">Offline-first AI personal finance</text>
    <g transform="translate(20,115)"><rect width="400" height="65" fill="#0D1117" stroke="#3B82F6" stroke-width="1" rx="5"/>
      <clipPath id="c1"><rect width="400" height="65" rx="5"/></clipPath>
      <g clip-path="url(#c1)"><g class="scroll-up">
        <text x="12" y="18" class="t-code">> INIT react-native... <tspan fill="#00FF00">[OK]</tspan></text>
        <text x="12" y="36" class="t-code">> LOAD tflite_model_v4.bin... <tspan fill="#00FF00">[OK]</tspan></text>
        <text x="12" y="54" class="t-code">> AI_PREDICT fraud... <tspan fill="#00E5FF">98.4%</tspan></text>
        <text x="12" y="72" class="t-code">> DEPLOY complete.</text>
      </g></g>
    </g>
    <text x="20" y="215" class="t-sub">AI_LEVEL:</text><rect x="95" y="205" width="110" height="10" fill="#8B5CF6" class="gp"/><text x="215" y="215" class="t-data">FRAUD_DETECTION</text>
    <text x="20" y="245" class="t-sub">DEPLOY:</text><rect x="95" y="235" width="300" height="8" fill="#161B22" stroke="#3B82F6"/><rect x="95" y="235" width="285" height="8" fill="#00E5FF" class="gc"/>
    <text x="400" y="245" class="t-tiny cyan">95%</text>
  </g>

  <!-- Project 2 -->
  <g transform="translate(510,1210)" class="card-hover">
    <path d="M10 0L430 0 440 10 440 260 430 270 10 270 0 260 0 10Z" class="card"/><rect width="440" height="270" fill="url(#glass)" rx="5"/>
    <rect width="440" height="270" fill="rgba(168,85,247,.04)" class="hv"/>
    <path d="M0 10L10 0 430 0" fill="none" stroke="#A855F7" stroke-width="3" class="hv gp pulse"/>
    <circle cx="20" cy="22" r="4" fill="#00FF00" class="pulse-f" filter="drop-shadow(0 0 4px #00FF00)"/>
    <text x="34" y="27" class="t-code">PID:8112</text><text x="150" y="27" class="t-code" fill="#00E5FF">v1.2.0</text><text x="350" y="27" class="t-code pur">RAM:512MB</text>
    <text x="20" y="58" class="t-title">AI Hospital System</text>
    <line x1="20" y1="72" x2="420" y2="72" stroke="#3B82F6" stroke-width="1" opacity=".3"/>
    <text x="20" y="95" class="t-data pur">Smart scheduling &amp; med management</text>
    <g transform="translate(20,115)"><rect width="400" height="65" fill="#0D1117" stroke="#3B82F6" stroke-width="1" rx="5"/>
      <clipPath id="c2"><rect width="400" height="65" rx="5"/></clipPath>
      <g clip-path="url(#c2)"><g class="scroll-up" style="animation-delay:-3s">
        <text x="12" y="18" class="t-code">> BOOT fastapi... <tspan fill="#00FF00">[OK]</tspan></text>
        <text x="12" y="36" class="t-code">> CONNECT mongodb... <tspan fill="#00FF00">[OK]</tspan></text>
        <text x="12" y="54" class="t-code">> INIT groq_ai... <tspan fill="#A855F7">[LOADED]</tspan></text>
        <text x="12" y="72" class="t-code">> QUEUE_PREDICT running...</text>
      </g></g>
    </g>
    <text x="20" y="215" class="t-sub">AI_LEVEL:</text><rect x="95" y="205" width="110" height="10" fill="#00E5FF" class="gc"/><text x="215" y="215" class="t-data">QUEUE_PREDICT</text>
    <text x="20" y="245" class="t-sub">DEPLOY:</text><rect x="95" y="235" width="300" height="8" fill="#161B22" stroke="#3B82F6"/><rect x="95" y="235" width="240" height="8" fill="#8B5CF6" class="gp"/>
    <text x="400" y="245" class="t-tiny pur">80%</text>
  </g>

  <!-- Project 3 -->
  <g transform="translate(50,1510)" class="card-hover">
    <path d="M10 0L430 0 440 10 440 260 430 270 10 270 0 260 0 10Z" class="card"/><rect width="440" height="270" fill="url(#glass)" rx="5"/>
    <rect width="440" height="270" fill="rgba(59,130,246,.04)" class="hv"/>
    <path d="M0 10L10 0 430 0" fill="none" stroke="#00E5FF" stroke-width="3" class="hv gc pulse"/>
    <circle cx="20" cy="22" r="4" fill="#00FF00" class="pulse-f" filter="drop-shadow(0 0 4px #00FF00)"/>
    <text x="34" y="27" class="t-code">PID:5041</text><text x="150" y="27" class="t-code" fill="#3B82F6">v3.0.5</text><text x="350" y="27" class="t-code blu">RAM:256MB</text>
    <text x="20" y="58" class="t-title">GeoSecure AI</text>
    <line x1="20" y1="72" x2="420" y2="72" stroke="#3B82F6" stroke-width="1" opacity=".3"/>
    <text x="20" y="95" class="t-data blu">Geo-tagged evidence &amp; security</text>
    <g transform="translate(20,115)"><rect width="400" height="65" fill="#0D1117" stroke="#3B82F6" stroke-width="1" rx="5"/>
      <clipPath id="c3"><rect width="400" height="65" rx="5"/></clipPath>
      <g clip-path="url(#c3)"><g class="scroll-up" style="animation-delay:-6s">
        <text x="12" y="18" class="t-code">> SYNC aws_s3... <tspan fill="#00FF00">[OK]</tspan></text>
        <text x="12" y="36" class="t-code">> GPS tracking... <tspan fill="#00FF00">[ACTIVE]</tspan></text>
        <text x="12" y="54" class="t-code">> ENCRYPT stream... <tspan fill="#00E5FF">[AES-256]</tspan></text>
        <text x="12" y="72" class="t-code">> UPLOAD complete.</text>
      </g></g>
    </g>
    <text x="20" y="215" class="t-sub">AI_LEVEL:</text><rect x="95" y="205" width="110" height="10" fill="#3B82F6" class="gb"/><text x="215" y="215" class="t-data">SECURE_VAULT</text>
    <text x="20" y="245" class="t-sub">DEPLOY:</text><rect x="95" y="235" width="300" height="8" fill="#161B22" stroke="#3B82F6"/><rect x="95" y="235" width="180" height="8" fill="#3B82F6" class="gb"/>
    <text x="400" y="245" class="t-tiny blu">60%</text>
  </g>

  <!-- Project 4 -->
  <g transform="translate(510,1510)" class="card-hover">
    <path d="M10 0L430 0 440 10 440 260 430 270 10 270 0 260 0 10Z" class="card"/><rect width="440" height="270" fill="url(#glass)" rx="5"/>
    <rect width="440" height="270" fill="rgba(0,229,255,.04)" class="hv"/>
    <path d="M0 10L10 0 430 0" fill="none" stroke="#00E5FF" stroke-width="3" class="hv gc pulse"/>
    <circle cx="20" cy="22" r="4" fill="#00FF00" class="pulse-f" filter="drop-shadow(0 0 4px #00FF00)"/>
    <text x="34" y="27" class="t-code">PID:9022</text><text x="150" y="27" class="t-code" fill="#8B5CF6">v1.8.0</text><text x="350" y="27" class="t-code">RAM:180MB</text>
    <text x="20" y="58" class="t-title">VibeSync</text>
    <line x1="20" y1="72" x2="420" y2="72" stroke="#3B82F6" stroke-width="1" opacity=".3"/>
    <text x="20" y="95" class="t-data" fill="#8B5CF6">Realtime media synchronization</text>
    <g transform="translate(20,115)"><rect width="400" height="65" fill="#0D1117" stroke="#3B82F6" stroke-width="1" rx="5"/>
      <clipPath id="c4"><rect width="400" height="65" rx="5"/></clipPath>
      <g clip-path="url(#c4)"><g class="scroll-up" style="animation-delay:-8s">
        <text x="12" y="18" class="t-code">> LOAD flutter_engine... <tspan fill="#00FF00">[OK]</tspan></text>
        <text x="12" y="36" class="t-code">> CONNECT firebase... <tspan fill="#00FF00">[OK]</tspan></text>
        <text x="12" y="54" class="t-code">> SYNC latency: <tspan fill="#00E5FF">12ms</tspan></text>
        <text x="12" y="72" class="t-code">> BROADCAST started.</text>
      </g></g>
    </g>
    <text x="20" y="215" class="t-sub">AI_LEVEL:</text><rect x="95" y="205" width="110" height="10" fill="#8B5CF6" class="gp"/><text x="215" y="215" class="t-data">ZERO_LATENCY</text>
    <text x="20" y="245" class="t-sub">DEPLOY:</text><rect x="95" y="235" width="300" height="8" fill="#161B22" stroke="#3B82F6"/><rect x="95" y="235" width="270" height="8" fill="#A855F7" class="gp"/>
    <text x="400" y="245" class="t-tiny pur">90%</text>
  </g>

  <!-- ══════════ TRANSITION TO STATS ══════════ -->
  <g transform="translate(0,1880)">
    <path d="M200 0L200 520" stroke="#3B82F6" stroke-width="2" class="stream"/>
    <path d="M500 0L500 520" stroke="#00E5FF" stroke-width="2" class="gc stream"/>
    <path d="M800 0L800 520" stroke="#8B5CF6" stroke-width="2" class="stream"/>
    <path d="M200 0L200 520" fill="none" stroke="#00E5FF" class="pkt"/>
    <path d="M500 0L500 520" fill="none" stroke="#A855F7" class="pkt" style="animation-delay:-2s"/>
    <line x1="80" y1="80" x2="920" y2="80" stroke="#3B82F6" stroke-width="1"/>
    <line x1="280" y1="80" x2="720" y2="80" stroke="#A855F7" stroke-width="3" class="gp pulse"/>
    <text x="500" y="68" font-family="'Orbitron',sans-serif" font-size="18" fill="#FFF" text-anchor="middle" letter-spacing="4px">TELEMETRY_DASHBOARD</text>
  </g>

  <!-- ══════════ AI ASSISTANT PANEL ══════════ -->
  <g transform="translate(700,2010)">
    <rect width="270" height="160" fill="rgba(13,17,23,.85)" stroke="#00E5FF" stroke-width="1.5" rx="10" class="gc"/>
    <rect width="270" height="160" fill="url(#glass)" rx="10"/>
    <line x1="0" y1="30" x2="270" y2="30" stroke="#00E5FF" stroke-width="1" opacity=".3"/>
    <text x="15" y="20" font-family="'Orbitron',sans-serif" font-size="13" font-weight="700" fill="#00E5FF" class="gc">AI_ASSISTANT</text>
    <circle cx="250" cy="15" r="4" fill="#00FF00" class="pulse-f" filter="drop-shadow(0 0 4px #00FF00)"/>
    <text x="15" y="52" class="t-sub">CURRENT TASK:</text><text x="130" y="52" class="t-data">SpendGuard AI</text>
    <text x="15" y="78" class="t-sub">NEXT TARGET:</text><text x="130" y="78" class="t-data">Hospital AI</text>
    <text x="15" y="104" class="t-sub">LEARNING:</text><text x="130" y="104" class="t-data pur gp">Flutter, FastAPI</text>
    <text x="15" y="130" class="t-sub">SYS LOAD:</text><text x="130" y="130" class="t-data cyan gc">LOW</text>
    <text x="15" y="152" class="t-sub">LAST COMMIT:</text><text x="130" y="152" class="t-data cyan gc blink">LIVE</text>
  </g>

  <!-- ══════════ BOOT SEQUENCE OVERLAY ══════════ -->
  <g class="boot-overlay">
    <rect width="1000" height="2400" fill="#0D1117"/>
    <rect width="1000" height="2400" fill="url(#noise)" style="mix-blend-mode:overlay"/>
    <rect width="1000" height="8" fill="#00E5FF" class="scan gc"/>
    <g transform="translate(280,750)">
      <text y="0" class="t-code b1" fill="#00E5FF">BOOTING AI COMMAND CENTER...</text>
      <rect y="12" height="10" fill="#00E5FF" class="bar1 gc"/>
      <text y="55" class="t-code b2" fill="#8B5CF6">Loading AI Core &amp; Neural Network...</text>
      <rect y="67" height="10" fill="#8B5CF6" class="bar2 gp"/>
      <text y="110" class="t-code b3" fill="#00E5FF">Authenticating User Identity...</text>
      <rect y="122" height="10" fill="#00E5FF" class="bar3 gc"/>
      <text y="165" class="t-code b4" fill="#A855F7">Initializing Mission Control...</text>
      <rect y="177" height="10" fill="#A855F7" class="bar4 gp"/>
      <text y="230" class="t-hero gc cyan b5" font-size="34">IDENTITY VERIFIED.</text>
      <text y="270" class="t-data b5" font-size="22" fill="#FFF">Welcome, S.G. Rathenesh.</text>
      <text y="310" class="t-code b5 blink" font-size="16" fill="#A855F7">Launching Interface_</text>
    </g>
  </g>
</svg>
